<?xml version="1.0" encoding="utf-8"?>
<!-- Generator: Adobe Illustrator 19.0.0, SVG Export Plug-In . SVG Version: 6.00 Build 0)  -->
<svg version="1.1" id="Layer_1" xmlns="http://www.w3.org/2000/svg" xmlns:xlink="http://www.w3.org/1999/xlink" x="0px" y="0px"
	 viewBox="-293 385 24 24" style="enable-background:new -293 385 24 24;" xml:space="preserve">
<style type="text/css">
	.st0{fill:none;}
	.st1{fill:#FFFFFF;}
	.st2{fill:#B1B1B1;}
</style>
<path class="st0" d="M-293,385h24v24h-24V385z"/>
<path class="st0" d="M-293,385h24v24h-24V385z"/>
<path class="st1" d="M-274.2,390.2h-13.5c-0.8,0-1.5,0.7-1.5,1.5v2.2h1.5v-2.2h13.5v10.5h-5.2v1.5h5.2c0.8,0,1.5-0.7,1.5-1.5v-10.5
	C-272.8,390.9-273.4,390.2-274.2,390.2z M-289.2,401.5v2.2h2.2C-287,402.5-288,401.5-289.2,401.5z M-289.2,398.5v1.5
	c2.1,0,3.8,1.7,3.8,3.8h1.5C-284,400.8-286.3,398.5-289.2,398.5z M-289.2,395.5v1.5c3.7,0,6.8,3,6.8,6.8h1.5
	C-281,399.2-284.7,395.5-289.2,395.5z"/>
<rect x="-293" y="385" class="st2" width="0.1" height="0.1"/>
<rect x="-269.1" y="385" class="st2" width="0.1" height="0.1"/>
<rect x="-269.1" y="408.9" class="st2" width="0.1" height="0.1"/>
<rect x="-293" y="408.9" class="st2" width="0.1" height="0.1"/>
</svg>
